<svg width="120" height="54" viewBox="0 0 120 54" fill="none" xmlns="http://www.w3.org/2000/svg">
<g id="logo 1">
<path id="Vector" d="M1.28577 27C1.28577 20.8449 5.61095 15.7 11.3878 14.4387V25.8966C11.2511 26.2377 11.1759 26.6101 11.1759 27C11.1759 28.6387 12.5043 29.9671 14.1429 29.9671H28.8368V39.8572H14.1429C7.0421 39.8572 1.28577 34.1008 1.28577 27Z" fill="black"/>
<path id="Vector_2" d="M42.6123 39.5613C48.3892 38.3 52.7143 33.1551 52.7143 27C52.7143 19.8993 46.9579 14.1429 39.8572 14.1429H26.0817V24.033H39.8572C41.4958 24.033 42.8242 25.3614 42.8242 27C42.8242 27.39 42.749 27.7623 42.6123 28.1034V39.5613Z" fill="black"/>
<path id="Vector_3" d="M29.9671 39.8571V26.0816H39.8572V39.8571C39.8572 46.9579 34.1008 52.7143 27 52.7143C20.8449 52.7143 15.7 48.3891 14.4387 42.6123H25.8966C26.2377 42.749 26.6101 42.8242 27 42.8242C28.6387 42.8242 29.9671 41.4958 29.9671 39.8571Z" fill="#D9271E"/>
<path id="Vector_4" d="M24.0329 14.1428V27.9184H14.1428V14.1428C14.1428 7.04204 19.8992 1.28571 27 1.28571C33.1551 1.28571 38.3 5.61089 39.5613 11.3877H28.1034C27.7623 11.251 27.3899 11.1758 27 11.1758C25.3613 11.1758 24.0329 12.5042 24.0329 14.1428Z" fill="#D9271E"/>
<path id="Vector_5" d="M69.2177 8.89716C69.8898 8.89716 70.4057 8.96916 70.7657 9.11316C71.1257 9.25716 71.4378 9.41315 71.7017 9.58116C71.8457 9.66515 71.9598 9.73116 72.0437 9.77916C72.1398 9.81516 72.2298 9.83316 72.3137 9.83316C72.4337 9.83316 72.5178 9.76716 72.5657 9.63516C72.6258 9.50315 72.6737 9.30515 72.7097 9.04116H73.1237C73.1118 9.26915 73.0938 9.53316 73.0697 9.83316C73.0578 10.1332 73.0457 10.5352 73.0337 11.0392C73.0337 11.5312 73.0337 12.1852 73.0337 13.0012H72.6197C72.5837 12.3892 72.4458 11.8012 72.2057 11.2372C71.9778 10.6732 71.6477 10.2112 71.2157 9.85116C70.7957 9.47916 70.2557 9.29316 69.5957 9.29316C69.0078 9.29316 68.5157 9.46715 68.1197 9.81516C67.7357 10.1632 67.5437 10.6312 67.5437 11.2192C67.5437 11.7232 67.6697 12.1492 67.9217 12.4972C68.1737 12.8332 68.5277 13.1632 68.9837 13.4872C69.4517 13.7992 70.0037 14.1592 70.6397 14.5672C71.2277 14.9512 71.7557 15.3351 72.2237 15.7192C72.6917 16.0911 73.0578 16.5051 73.3217 16.9612C73.5978 17.4172 73.7357 17.9752 73.7357 18.6352C73.7357 19.4152 73.5438 20.0632 73.1597 20.5792C72.7757 21.0951 72.2597 21.4792 71.6117 21.7312C70.9637 21.9832 70.2557 22.1092 69.4877 22.1092C68.7797 22.1092 68.2158 22.0372 67.7957 21.8932C67.3878 21.7492 67.0337 21.5991 66.7337 21.4432C66.4698 21.2751 66.2657 21.1912 66.1217 21.1912C66.0018 21.1912 65.9118 21.2571 65.8517 21.3892C65.8038 21.5212 65.7617 21.7192 65.7257 21.9832H65.3117C65.3358 21.7071 65.3477 21.3831 65.3477 21.0112C65.3597 20.6392 65.3657 20.1591 65.3657 19.5712C65.3777 18.9711 65.3837 18.2151 65.3837 17.3032H65.7977C65.8457 18.0711 65.9777 18.7911 66.1937 19.4632C66.4217 20.1231 66.7637 20.6572 67.2197 21.0652C67.6877 21.4731 68.3058 21.6772 69.0737 21.6772C69.4938 21.6772 69.8718 21.6052 70.2077 21.4612C70.5558 21.3052 70.8317 21.0712 71.0357 20.7592C71.2398 20.4352 71.3417 20.0272 71.3417 19.5352C71.3417 19.0431 71.2277 18.6111 70.9997 18.2392C70.7718 17.8672 70.4537 17.5192 70.0457 17.1952C69.6378 16.8712 69.1577 16.5411 68.6057 16.2052C68.0417 15.8452 67.5138 15.4791 67.0217 15.1072C66.5297 14.7352 66.1337 14.3152 65.8337 13.8472C65.5457 13.3672 65.4017 12.7912 65.4017 12.1192C65.4017 11.3752 65.5817 10.7692 65.9417 10.3012C66.3017 9.82116 66.7697 9.46715 67.3457 9.23916C67.9337 9.01116 68.5578 8.89716 69.2177 8.89716ZM78.4038 21.9832C77.8878 21.9832 77.4498 21.8871 77.0898 21.6952C76.7298 21.4911 76.4598 21.2211 76.2798 20.8852C76.0998 20.5371 76.0098 20.1532 76.0098 19.7332C76.0098 19.2172 76.1297 18.7972 76.3698 18.4732C76.6098 18.1372 76.9158 17.8731 77.2878 17.6812C77.6718 17.4771 78.0737 17.3092 78.4938 17.1772C78.9138 17.0332 79.3098 16.9011 79.6818 16.7812C80.0537 16.6491 80.3597 16.4992 80.5998 16.3312C80.8398 16.1631 80.9598 15.9412 80.9598 15.6652V14.3512C80.9598 13.9671 80.8997 13.6552 80.7798 13.4152C80.6718 13.1632 80.5037 12.9771 80.2758 12.8572C80.0598 12.7252 79.7837 12.6592 79.4478 12.6592C79.1958 12.6592 78.9318 12.6952 78.6558 12.7672C78.3797 12.8392 78.1518 12.9771 77.9718 13.1812C78.2838 13.2651 78.5237 13.4212 78.6918 13.6492C78.8718 13.8771 78.9618 14.1532 78.9618 14.4772C78.9618 14.8491 78.8358 15.1432 78.5838 15.3592C78.3437 15.5632 78.0377 15.6652 77.6658 15.6652C77.2698 15.6652 76.9698 15.5392 76.7658 15.2872C76.5617 15.0352 76.4598 14.7411 76.4598 14.4052C76.4598 14.0692 76.5437 13.7932 76.7118 13.5772C76.8798 13.3492 77.1138 13.1452 77.4138 12.9652C77.7137 12.7612 78.0978 12.5992 78.5658 12.4792C79.0338 12.3592 79.5438 12.2992 80.0958 12.2992C80.6238 12.2992 81.0918 12.3592 81.4998 12.4792C81.9077 12.5872 82.2558 12.7852 82.5438 13.0732C82.8318 13.3492 83.0178 13.6912 83.1018 14.0992C83.1857 14.5071 83.2278 15.0052 83.2278 15.5932V20.5252C83.2278 20.8251 83.2638 21.0411 83.3358 21.1732C83.4078 21.2931 83.5218 21.3532 83.6778 21.3532C83.7977 21.3532 83.9118 21.3232 84.0198 21.2632C84.1278 21.2031 84.2477 21.1192 84.3798 21.0112L84.5778 21.3172C84.3138 21.5212 84.0378 21.6832 83.7498 21.8032C83.4618 21.9231 83.1137 21.9832 82.7058 21.9832C82.2857 21.9832 81.9498 21.9231 81.6978 21.8032C81.4577 21.6832 81.2777 21.5091 81.1578 21.2812C81.0498 21.0532 80.9897 20.7832 80.9778 20.4712C80.6898 20.9511 80.3358 21.3232 79.9158 21.5872C79.4957 21.8511 78.9917 21.9832 78.4038 21.9832ZM79.4838 20.9752C79.7718 20.9752 80.0357 20.8971 80.2758 20.7412C80.5278 20.5852 80.7557 20.3512 80.9598 20.0392V16.4032C80.8398 16.5832 80.6657 16.7452 80.4378 16.8892C80.2218 17.0332 79.9878 17.1772 79.7358 17.3212C79.4838 17.4652 79.2437 17.6332 79.0158 17.8252C78.7998 18.0052 78.6137 18.2331 78.4578 18.5092C78.3138 18.7731 78.2418 19.1151 78.2418 19.5352C78.2418 20.0032 78.3558 20.3632 78.5838 20.6152C78.8117 20.8552 79.1118 20.9752 79.4838 20.9752ZM91.9711 12.2992C92.3431 12.2992 92.6491 12.3772 92.8891 12.5332C93.1411 12.6892 93.3272 12.8871 93.4471 13.1272C93.5671 13.3672 93.6271 13.6192 93.6271 13.8832C93.6271 14.2792 93.5072 14.6092 93.2671 14.8732C93.0392 15.1371 92.7332 15.2692 92.3491 15.2692C91.9891 15.2692 91.6951 15.1731 91.4671 14.9812C91.2392 14.7892 91.1251 14.5251 91.1251 14.1892C91.1251 13.8892 91.1971 13.6372 91.3411 13.4332C91.4971 13.2291 91.6712 13.0671 91.8631 12.9472C91.7311 12.8752 91.5812 12.8512 91.4131 12.8752C91.1251 12.8992 90.8612 13.0012 90.6211 13.1812C90.3811 13.3612 90.1772 13.5832 90.0091 13.8472C89.8411 14.1111 89.7092 14.3932 89.6131 14.6932C89.5292 14.9931 89.4871 15.2811 89.4871 15.5572V20.0032C89.4871 20.5911 89.6372 20.9871 89.9371 21.1912C90.2371 21.3831 90.6751 21.4792 91.2511 21.4792V21.8572C90.9751 21.8452 90.5732 21.8331 90.0451 21.8212C89.5292 21.7971 88.9892 21.7852 88.4251 21.7852C87.9571 21.7852 87.4891 21.7971 87.0211 21.8212C86.5651 21.8331 86.2231 21.8452 85.9951 21.8572V21.4792C86.4391 21.4792 86.7511 21.3892 86.9311 21.2092C87.1231 21.0292 87.2191 20.6872 87.2191 20.1832V14.5132C87.2191 13.9732 87.1291 13.5772 86.9491 13.3252C86.7811 13.0612 86.4631 12.9292 85.9951 12.9292V12.5512C86.3792 12.5872 86.7511 12.6052 87.1111 12.6052C87.5551 12.6052 87.9751 12.5872 88.3711 12.5512C88.7791 12.5032 89.1512 12.4372 89.4871 12.3532V14.2252C89.6311 13.8892 89.8172 13.5772 90.0451 13.2892C90.2852 13.0012 90.5671 12.7672 90.8911 12.5872C91.2271 12.3952 91.5871 12.2992 91.9711 12.2992ZM98.6489 12.3532V20.1832C98.6489 20.6872 98.7389 21.0292 98.9189 21.2092C99.1108 21.3892 99.4288 21.4792 99.8729 21.4792V21.8572C99.6569 21.8452 99.3268 21.8331 98.8829 21.8212C98.4388 21.7971 97.9888 21.7852 97.5329 21.7852C97.0888 21.7852 96.6388 21.7971 96.1829 21.8212C95.7268 21.8331 95.3848 21.8452 95.1569 21.8572V21.4792C95.6008 21.4792 95.9129 21.3892 96.0929 21.2092C96.2848 21.0292 96.3809 20.6872 96.3809 20.1832V14.5312C96.3809 13.9792 96.2909 13.5772 96.1109 13.3252C95.9428 13.0612 95.6249 12.9292 95.1569 12.9292V12.5512C95.5408 12.5872 95.9129 12.6052 96.2729 12.6052C96.7168 12.6052 97.1369 12.5872 97.5329 12.5512C97.9408 12.5032 98.3128 12.4372 98.6489 12.3532ZM64.9337 33.5417C65.2337 33.5537 65.6177 33.5658 66.0857 33.5777C66.5537 33.5897 67.0217 33.5957 67.4897 33.5957C68.0777 33.5957 68.6357 33.5897 69.1637 33.5777C69.6918 33.5658 70.0637 33.5597 70.2797 33.5597C71.8878 33.5597 73.0817 33.8898 73.8617 34.5497C74.6537 35.2097 75.0497 36.0617 75.0497 37.1057C75.0497 37.5377 74.9717 37.9938 74.8157 38.4737C74.6598 38.9417 74.3898 39.3798 74.0057 39.7877C73.6217 40.1837 73.0938 40.5077 72.4217 40.7597C71.7618 41.0117 70.9158 41.1377 69.8837 41.1377H68.0837V40.7777H69.7037C70.4597 40.7777 71.0357 40.6157 71.4317 40.2917C71.8397 39.9677 72.1097 39.5418 72.2417 39.0137C72.3857 38.4857 72.4577 37.9157 72.4577 37.3037C72.4577 36.1637 72.2717 35.3118 71.8997 34.7477C71.5278 34.1837 70.8857 33.9017 69.9737 33.9017C69.4817 33.9017 69.1577 34.0037 69.0017 34.2077C68.8577 34.4118 68.7857 34.8258 68.7857 35.4497V44.3057C68.7857 44.7618 68.8337 45.1038 68.9297 45.3317C69.0258 45.5597 69.2117 45.7097 69.4877 45.7817C69.7638 45.8537 70.1598 45.8958 70.6757 45.9077V46.2857C70.3277 46.2617 69.8777 46.2497 69.3257 46.2497C68.7738 46.2378 68.2037 46.2317 67.6157 46.2317C67.1117 46.2317 66.6257 46.2378 66.1577 46.2497C65.6897 46.2497 65.2818 46.2617 64.9337 46.2857V45.9257C65.3297 45.9017 65.6238 45.8537 65.8157 45.7817C66.0198 45.7097 66.1517 45.5657 66.2117 45.3497C66.2837 45.1337 66.3197 44.8097 66.3197 44.3777V35.4497C66.3197 35.0058 66.2837 34.6818 66.2117 34.4777C66.1517 34.2617 66.0198 34.1177 65.8157 34.0457C65.6238 33.9618 65.3297 33.9137 64.9337 33.9017V33.5417ZM81.1409 36.7277C82.1969 36.7277 83.0249 37.0457 83.6249 37.6817C84.2248 38.3178 84.5249 39.3317 84.5249 40.7237H78.4589L78.4409 40.3817H82.4369C82.4608 39.7938 82.4248 39.2538 82.3289 38.7617C82.2329 38.2577 82.0769 37.8557 81.8609 37.5557C81.6569 37.2558 81.3869 37.1057 81.0509 37.1057C80.5949 37.1057 80.1989 37.3757 79.8629 37.9157C79.5268 38.4438 79.3169 39.3137 79.2329 40.5257L79.3049 40.6337C79.2809 40.7897 79.2629 40.9577 79.2509 41.1377C79.2509 41.3177 79.2509 41.4977 79.2509 41.6777C79.2509 42.5057 79.3709 43.1897 79.6109 43.7297C79.8508 44.2697 80.1629 44.6657 80.5469 44.9177C80.9308 45.1697 81.3268 45.2957 81.7349 45.2957C82.0108 45.2957 82.2929 45.2537 82.5809 45.1697C82.8689 45.0858 83.1509 44.9297 83.4269 44.7017C83.7028 44.4738 83.9548 44.1498 84.1829 43.7297L84.5249 43.8737C84.3929 44.2938 84.1708 44.7137 83.8589 45.1337C83.5588 45.5417 83.1689 45.8778 82.6889 46.1417C82.2088 46.4057 81.6449 46.5377 80.9969 46.5377C80.1809 46.5377 79.4609 46.3577 78.8369 45.9977C78.2128 45.6377 77.7268 45.1038 77.3789 44.3957C77.0309 43.6757 76.8569 42.7998 76.8569 41.7677C76.8569 40.6758 77.0369 39.7578 77.3969 39.0137C77.7689 38.2697 78.2789 37.7058 78.9269 37.3217C79.5749 36.9257 80.3129 36.7277 81.1409 36.7277ZM89.9947 34.0277V36.9977H92.2987V37.3577H89.9947V44.5217C89.9947 44.9537 90.0728 45.2597 90.2287 45.4397C90.3848 45.6197 90.6067 45.7097 90.8947 45.7097C91.1708 45.7097 91.4228 45.6078 91.6507 45.4037C91.8788 45.1877 92.0827 44.8338 92.2627 44.3417L92.5867 44.4857C92.4067 45.0737 92.1248 45.5657 91.7407 45.9617C91.3688 46.3458 90.8407 46.5377 90.1567 46.5377C89.7488 46.5377 89.4007 46.4837 89.1127 46.3757C88.8368 46.2797 88.5968 46.1357 88.3927 45.9437C88.1288 45.6677 87.9488 45.3378 87.8527 44.9537C87.7688 44.5697 87.7267 44.0598 87.7267 43.4237V37.3577H86.1427V36.9977H87.7267V34.4957C88.1587 34.4838 88.5608 34.4417 88.9327 34.3697C89.3048 34.2977 89.6588 34.1837 89.9947 34.0277ZM99.7969 36.7277C100.169 36.7277 100.475 36.8058 100.715 36.9617C100.967 37.1177 101.153 37.3157 101.273 37.5557C101.393 37.7958 101.453 38.0478 101.453 38.3117C101.453 38.7077 101.333 39.0378 101.093 39.3017C100.865 39.5657 100.559 39.6977 100.175 39.6977C99.8149 39.6977 99.5208 39.6017 99.2929 39.4097C99.0649 39.2178 98.9509 38.9537 98.9509 38.6177C98.9509 38.3178 99.0229 38.0658 99.1669 37.8617C99.3228 37.6577 99.4969 37.4957 99.6889 37.3757C99.5568 37.3037 99.4069 37.2797 99.2389 37.3037C98.9509 37.3278 98.6869 37.4297 98.4469 37.6097C98.2068 37.7897 98.0029 38.0118 97.8349 38.2757C97.6668 38.5397 97.5349 38.8218 97.4389 39.1217C97.3549 39.4217 97.3129 39.7097 97.3129 39.9857V44.4317C97.3129 45.0197 97.4629 45.4157 97.7629 45.6197C98.0628 45.8117 98.5009 45.9077 99.0769 45.9077V46.2857C98.8008 46.2738 98.3989 46.2617 97.8709 46.2497C97.3549 46.2257 96.8149 46.2137 96.2509 46.2137C95.7829 46.2137 95.3149 46.2257 94.8469 46.2497C94.3908 46.2617 94.0488 46.2738 93.8209 46.2857V45.9077C94.2648 45.9077 94.5769 45.8177 94.7569 45.6377C94.9488 45.4577 95.0449 45.1157 95.0449 44.6117V38.9417C95.0449 38.4017 94.9549 38.0057 94.7749 37.7537C94.6068 37.4898 94.2889 37.3577 93.8209 37.3577V36.9797C94.2049 37.0157 94.5769 37.0337 94.9369 37.0337C95.3808 37.0337 95.8009 37.0157 96.1969 36.9797C96.6048 36.9318 96.9769 36.8657 97.3129 36.7817V38.6537C97.4569 38.3178 97.6429 38.0057 97.8709 37.7177C98.1109 37.4297 98.3929 37.1957 98.7169 37.0157C99.0528 36.8238 99.4128 36.7277 99.7969 36.7277ZM107.273 36.7277C108.101 36.7277 108.833 36.8958 109.469 37.2317C110.117 37.5557 110.627 38.0777 110.999 38.7977C111.383 39.5177 111.575 40.4657 111.575 41.6417C111.575 42.8178 111.383 43.7657 110.999 44.4857C110.627 45.2057 110.117 45.7277 109.469 46.0517C108.833 46.3757 108.101 46.5377 107.273 46.5377C106.445 46.5377 105.707 46.3757 105.059 46.0517C104.411 45.7277 103.901 45.2057 103.529 44.4857C103.157 43.7657 102.971 42.8178 102.971 41.6417C102.971 40.4657 103.157 39.5177 103.529 38.7977C103.901 38.0777 104.411 37.5557 105.059 37.2317C105.707 36.8958 106.445 36.7277 107.273 36.7277ZM107.273 37.0877C106.709 37.0877 106.247 37.4477 105.887 38.1677C105.539 38.8758 105.365 40.0337 105.365 41.6417C105.365 43.2498 105.539 44.4077 105.887 45.1157C106.247 45.8238 106.709 46.1777 107.273 46.1777C107.825 46.1777 108.281 45.8238 108.641 45.1157C109.001 44.4077 109.181 43.2498 109.181 41.6417C109.181 40.0337 109.001 38.8758 108.641 38.1677C108.281 37.4477 107.825 37.0877 107.273 37.0877ZM116.864 32.1917V44.6117C116.864 45.1157 116.954 45.4577 117.134 45.6377C117.326 45.8177 117.644 45.9077 118.088 45.9077V46.2857C117.872 46.2738 117.542 46.2617 117.098 46.2497C116.666 46.2257 116.222 46.2137 115.766 46.2137C115.322 46.2137 114.866 46.2257 114.398 46.2497C113.942 46.2617 113.6 46.2738 113.372 46.2857V45.9077C113.816 45.9077 114.128 45.8177 114.308 45.6377C114.5 45.4577 114.596 45.1157 114.596 44.6117V34.3517C114.596 33.8117 114.512 33.4157 114.344 33.1637C114.176 32.8998 113.852 32.7677 113.372 32.7677V32.3897C113.756 32.4257 114.128 32.4437 114.488 32.4437C114.944 32.4437 115.37 32.4257 115.766 32.3897C116.162 32.3418 116.528 32.2757 116.864 32.1917Z" fill="black"/>
</g>
</svg>
